<svg fill="#ffffff" xmlns="http://www.w3.org/2000/svg" viewBox="0 0 48 13"><path d="M.992188.726562H5.375c1.125 0 2.03906.348958 2.74219 1.046878C8.82031 2.46615 9.17188 3.375 9.17188 4.5c0 1.11979-.36198 2.02865-1.08594 2.72656-.71875.69792-1.65104 1.04688-2.79688 1.04688H3.00781V12H.992188V.726562zM3.00781 2.375v4.27344h1.82813c.72396 0 1.28646-.1875 1.6875-.5625.40104-.375.60156-.90365.60156-1.58594 0-.67708-.20052-1.20052-.60156-1.57031C6.1276 2.5599 5.56771 2.375 4.84375 2.375H3.00781zM10.5 12V3.71875h1.9453V12H10.5zm1.7344-9.67188c-.2084.20313-.4636.30469-.7656.30469-.3021 0-.5573-.10156-.7657-.30469-.2083-.20833-.3125-.45833-.3125-.75 0-.29687.1042-.54687.3125-.749995.2084-.208333.4636-.3125.7657-.3125.302 0 .5572.104167.7656.3125.2135.203125.3203.453125.3203.749995 0 .29167-.1068.54167-.3203.75zM16.1016 7.17188l3.1172-3.45313h2.2421l-3.3125 3.5625L21.6016 12h-2.25l-2.6172-3.53906-.6563.66406V12h-1.9453V.726562h1.9453V7.17188h.0235zM25.3672 10.6641c.5573 0 1.026-.1641 1.4062-.4922.3855-.33336.5782-.74742.5782-1.24221v-.63281l-1.9141.11718c-.4687.03125-.8333.14844-1.0937.35156-.2553.19792-.3829.46094-.3829.78907 0 .33854.1276.60941.3829.81251.2604.1979.6015.2969 1.0234.2969zm-.586 1.4687c-.8072 0-1.4713-.2318-1.9921-.6953-.5157-.4635-.7735-1.0651-.7735-1.80469 0-.73437.2709-1.3151.8125-1.74219.5469-.42708 1.3255-.67187 2.336-.73437l2.1875-.125V6.4375c0-.43229-.1381-.76823-.4141-1.00781-.2708-.23959-.6484-.35938-1.1328-.35938-.4531 0-.8229.10157-1.1094.30469-.2864.20312-.4609.47917-.5234.82812h-1.8047c.0417-.78645.3776-1.42447 1.0078-1.91406.6354-.49479 1.4714-.74218 2.5078-.74218 1.0261 0 1.8464.25 2.461.75.6197.5.9296 1.16666.9296 2V12h-1.875v-1.3203h-.039c-.2344.4427-.5886.7969-1.0625 1.0625-.474.2604-.9792.3906-1.5157.3906zM33.9375 12.1328c-1.0469 0-1.8828-.3854-2.5078-1.1562-.6198-.7709-.9297-1.81254-.9297-3.12504 0-1.30729.3099-2.34635.9297-3.11718.625-.77084 1.4609-1.15626 2.5078-1.15626.5833 0 1.099.13803 1.5469.41407.4531.27604.7916.64843 1.0156 1.11719h.0469V.726562h1.9453V12h-1.9063v-1.4141h-.0312c-.2292.474-.5755.8516-1.0391 1.1329-.4583.276-.9844.414-1.5781.414zm.5859-6.95311c-.625 0-1.1198.24219-1.4843.72656-.3646.47917-.5469 1.13021-.5469 1.95313 0 .82812.1797 1.48177.539 1.96093.3646.47919.862.71879 1.4922.71879.6146 0 1.1068-.2422 1.4766-.7266.3698-.48438.5547-1.13542.5547-1.95312 0-.8125-.1849-1.46094-.5547-1.94532-.3698-.48958-.862-.73437-1.4766-.73437zM47.4688 3.71875V12h-1.875v-1.4375h-.0391c-.4583 1.0573-1.3021 1.5859-2.5313 1.5859-.901 0-1.6172-.2734-2.1484-.8203-.526-.5521-.7891-1.3047-.7891-2.25779V3.71875h1.9453v4.96094c0 .59375.1407 1.04687.4219 1.35941.2865.3125.7031.4687 1.25.4687.5573 0 1-.1823 1.3281-.54686.3282-.36459.4922-.84896.4922-1.45313V3.71875h1.9454z"/></svg>